<?xml version="1.0" encoding="UTF-8"?>
<svg version="1.1" xmlns="http://www.w3.org/2000/svg" width="512" height="512">
<g transform="translate(256,256) scale(1.5) translate(-256,-256)">
<path d="M0 0 C1.08704173 0.00436926 1.08704173 0.00436926 2.19604391 0.00882679 C3.34276198 0.00754515 3.34276198 0.00754515 4.51264608 0.00623763 C7.09381641 0.00458052 9.67492283 0.01010794 12.25608724 0.01555592 C14.09857583 0.01583777 15.94106454 0.0156801 17.78355306 0.01511341 C22.80193859 0.01482534 27.82030044 0.02072356 32.83868045 0.02768737 C38.07709361 0.03391938 43.31550725 0.03452459 48.55392355 0.03571278 C58.48099114 0.03882655 68.40804778 0.04704055 78.33511055 0.05706227 C89.63358718 0.068222 100.93206433 0.0737335 112.2305451 0.0787577 C135.47921823 0.08922312 158.72788162 0.10682344 181.97654623 0.12908131 C181.31676104 3.69580595 180.48335852 6.41204508 178.71092123 9.58611256 C178.00431356 10.86494313 178.00431356 10.86494313 177.28343099 12.16960865 C176.76965902 13.08435963 176.25588705 13.99911061 175.72654623 14.94158131 C174.62579747 16.92959224 173.5255543 18.91788319 172.42576498 20.90642506 C171.56990804 22.44725758 171.56990804 22.44725758 170.69676107 24.01921803 C167.9438733 28.99598278 165.24210706 34.00013237 162.53904623 39.00408131 C161.44673148 41.02238255 160.3542828 43.04061132 159.26170248 45.05876881 C158.44790121 46.56262135 158.44790121 46.56262135 157.61765951 48.09685475 C154.90532485 53.1083389 152.19083362 58.1186546 149.47654623 63.12908131 C148.39320241 65.12907563 147.30986908 67.12907563 146.22654623 69.12908131 C139.72654623 81.12908131 133.22654623 93.12908131 126.72654623 105.12908131 C126.1898934 106.11988697 125.65324056 107.11069264 125.10032552 108.13152272 C124.02127109 110.12349841 122.94200811 112.11536114 121.86253256 114.10710865 C119.08697624 119.22895535 116.31551163 124.35295302 113.55076498 129.48064381 C97.05728173 160.04834581 97.05728173 160.04834581 94.97654623 162.12908131 C92.56065649 162.22675516 90.17339239 162.25904809 87.75704855 162.24933583 C86.99256983 162.25019025 86.22809111 162.25104468 85.44044638 162.25192499 C82.85927605 162.2535821 80.27816963 162.24805468 77.69700521 162.2426067 C75.85451662 162.24232485 74.01202792 162.24248251 72.16953939 162.2430492 C67.15115386 162.24333727 62.13279201 162.23743906 57.11441201 162.23047525 C51.87599885 162.22424324 46.6375852 162.22363803 41.39916891 162.22244984 C31.47210131 162.21933607 21.54504467 162.21112207 11.61798191 162.20110035 C0.31950527 162.18994062 -10.97897187 162.18442912 -22.27745265 162.17940491 C-45.52612577 162.16893949 -68.77478916 162.15133918 -92.02345377 162.12908131 C-91.36366858 158.56235666 -90.53026606 155.84611753 -88.75782877 152.67205006 C-88.28675699 151.81949635 -87.81568522 150.96694264 -87.33033854 150.08855397 C-86.81656657 149.17380299 -86.30279459 148.25905201 -85.77345377 147.31658131 C-84.67270501 145.32857037 -83.57246184 143.34027943 -82.47267252 141.35173756 C-81.90210123 140.32451588 -81.33152994 139.2972942 -80.74366862 138.23894459 C-77.99078084 133.26217983 -75.2890146 128.25803024 -72.58595377 123.25408131 C-71.49363902 121.23578007 -70.40119034 119.2175513 -69.30861002 117.19939381 C-68.76607584 116.19682545 -68.22354166 115.19425709 -67.66456705 114.16130787 C-64.95223239 109.14982372 -62.23774117 104.13950801 -59.52345377 99.12908131 C-58.44010995 97.12908699 -57.35677662 95.12908699 -56.27345377 93.12908131 C-46.52345377 75.12908131 -46.52345377 75.12908131 -36.77345377 57.12908131 C-35.96847452 55.64287281 -35.96847452 55.64287281 -35.14723307 54.1266399 C-34.06817864 52.13466421 -32.98891565 50.14280148 -31.9094401 48.15105397 C-29.13388379 43.02920726 -26.36241918 37.9052096 -23.59767252 32.77751881 C-5.92156988 0.01804467 -5.92156988 0.01804467 0 0 Z " fill="#FFFFFF" transform="translate(211.02345377206802,174.8709186911583)"/>
</g>
</svg>
