<svg version="1.1" id="Layer_1"
    xmlns="http://www.w3.org/2000/svg"
    xmlns:xlink="http://www.w3.org/1999/xlink" x="0px" y="0px" width="100%" viewBox="0 0 300 300" enable-background="new 0 0 300 300" xml:space="preserve">
    <path fill="#FDF8F6" opacity="1.000000" stroke="none" d="
M130.023193,252.885345
	C108.789940,240.639221 87.869118,228.583679 66.960831,216.506424
	C57.173306,210.852859 52.216599,202.326935 52.196373,191.041428
	C52.148602,164.381989 52.136795,137.722321 52.192394,111.062897
	C52.215858,99.812408 57.060322,91.249458 66.892082,85.576057
	C89.972572,72.257515 113.041626,58.919090 136.099594,45.561592
	C146.065979,39.788067 155.954865,39.799782 165.930267,45.582027
	C188.839035,58.861107 211.767792,72.105965 234.721527,85.307175
	C244.708603,91.050972 249.785202,99.629387 249.808884,111.101906
	C249.863953,137.761337 249.874268,164.421066 249.806900,191.080429
	C249.778412,202.352844 244.780472,210.882370 234.998932,216.537018
	C212.940506,229.288879 190.702423,241.741272 168.871826,254.871490
	C156.507324,262.308228 144.851990,262.728333 132.932907,254.571075
	C132.110809,254.008423 131.206726,253.565598 130.023193,252.885345
M116.433891,82.896042
	C104.170425,89.955269 91.965866,97.120224 79.606049,104.006523
	C76.094872,105.962791 74.722000,108.397331 74.741310,112.373489
	C74.866653,138.191284 74.871880,164.010162 74.759155,189.828003
	C74.742607,193.618332 76.042091,195.946167 79.348351,197.834930
	C101.753090,210.634155 124.095619,223.543182 146.388138,236.537003
	C149.665009,238.447006 152.395081,238.404572 155.653107,236.506790
	C178.096207,223.433838 200.594803,210.455505 223.134079,197.548965
	C226.123596,195.837097 227.228928,193.604645 227.219543,190.253555
	C227.146332,164.102493 227.137863,137.951004 227.227539,111.800049
	C227.239914,108.193733 225.862457,106.029861 222.736908,104.243492
	C200.475647,91.520325 178.255096,78.723846 156.140198,65.748535
	C152.287704,63.488197 149.213913,63.713840 145.543274,65.929398
	C136.137405,71.606697 126.566406,77.010445 116.433891,82.896042
z"/>
    <path fill="#FDF8F5" opacity="1.000000" stroke="none" d="
M111.974838,170.000000
	C111.976807,150.696884 112.131912,131.891632 111.869934,113.092201
	C111.806732,108.556587 113.225563,107.317154 117.527153,107.610161
	C122.643738,107.958672 127.802208,107.692200 133.805420,107.692200
	C133.805420,112.146362 133.804688,116.219002 133.805618,120.291641
	C133.806641,124.784416 133.813278,129.277191 133.810211,133.769974
	C133.804153,142.606003 133.802063,142.605453 142.893631,142.603271
	C147.863678,142.602066 152.833725,142.603058 158.179947,142.603058
	C158.179947,148.737732 158.179947,154.450363 158.179947,160.841019
	C151.724182,160.841019 145.443375,161.134277 139.205444,160.743469
	C134.637070,160.457245 133.577057,162.151657 133.716400,166.427658
	C134.018860,175.708481 133.809647,185.005966 133.809647,195.140396
	C127.013039,195.140396 120.601997,195.268097 114.209900,194.978119
	C113.414604,194.942047 112.115784,192.709061 112.078484,191.463287
	C111.869438,184.480743 111.976028,177.488754 111.974838,170.000000
z"/>
    <path fill="#FDF8F5" opacity="1.000000" stroke="none" d="
M172.241272,195.189819
	C170.579590,194.229965 168.356750,193.277084 168.352692,192.314896
	C168.235718,164.504150 168.340317,136.692459 168.421860,108.880974
	C168.422256,108.744812 168.602692,108.609177 168.978287,108.079559
	C175.564178,108.079559 182.435516,108.079559 189.741684,108.079559
	C189.841293,109.855743 190.009521,111.467537 190.010468,113.079430
	C190.025543,138.732346 189.923355,164.385956 190.112289,190.037476
	C190.143738,194.307861 188.780136,195.581833 184.702332,195.256287
	C180.729935,194.939163 176.712158,195.190628 172.241272,195.189819
z"/>
</svg>
