<svg version="1.0"
    xmlns="http://www.w3.org/2000/svg" width="600.000000pt" height="600.000000pt" viewBox="0 0 600.000000 600.000000" preserveAspectRatio="xMidYMid meet" style="width: 496.124px; height: auto;">
    <g transform="translate(0.000000,600.000000) scale(0.100000,-0.100000)" fill="currentColor" stroke="none">
        <path d="M2175 5142 c-32 -7 -65 -33 -80 -62 -8 -15 -70 -193 -139 -396 -140 -417 -246 -728 -270 -793 -23 -62 -59 -106 -114 -138 l-47 -28 -645 -5 c-725 -6 -688 -2 -711 -79 -20 -68 -1 -100 109 -188 54 -43 196 -156 317 -252 121 -96 297 -235 390 -309 272 -216 285 -232 285 -350 0 -62 -21 -135 -226 -773 -125 -387 -229 -722 -231 -744 -5 -48 21 -96 69 -125 41 -25 84 -25 124 -1 26 16 220 184 793 685 58 50 155 136 217 191 61 55 160 143 220 195 60 52 178 158 264 235 85 77 182 162 215 190 33 27 90 76 126 110 59 55 139 124 362 318 43 38 80 67 83 65 2 -3 44 -125 94 -273 49 -147 96 -278 105 -291 21 -33 85 -51 124 -35 63 27 57 8 176 624 32 164 60 296 62 293 8 -8 28 -121 114 -635 44 -267 86 -498 93 -515 17 -40 36 -56 79 -63 43 -7 92 17 111 55 7 15 19 52 25 82 51 251 163 701 175 703 9 2 35 -72 101 -284 32 -105 62 -139 128 -146 67 -8 101 28 180 190 35 72 75 142 89 154 23 22 28 22 375 25 339 3 353 4 380 24 55 41 52 124 -6 162 -22 15 -65 17 -386 17 -282 0 -369 -3 -399 -14 -49 -17 -124 -86 -167 -152 -17 -27 -35 -49 -39 -49 -10 0 -43 91 -115 317 -59 182 -84 227 -135 238 -34 7 -83 -15 -104 -48 -8 -12 -49 -159 -91 -327 -42 -168 -78 -312 -81 -320 -12 -31 -20 8 -109 525 -71 410 -106 600 -116 633 -11 35 -59 72 -92 72 -33 0 -78 -31 -92 -63 -7 -18 -56 -250 -109 -517 -53 -267 -100 -494 -104 -504 -6 -15 -19 10 -52 105 -74 212 -80 225 -105 249 -30 29 -110 39 -148 19 -26 -14 -68 -50 -782 -674 -220 -192 -542 -473 -715 -624 -173 -151 -376 -328 -449 -393 -131 -114 -155 -132 -146 -106 8 24 224 724 274 888 78 255 85 352 32 490 -34 89 -83 143 -239 267 -81 64 -257 205 -392 312 l-245 196 485 6 c524 6 527 6 624 63 52 30 130 109 161 161 13 22 71 180 129 350 190 563 213 628 219 617 9 -14 110 -301 222 -635 52 -153 107 -300 122 -328 33 -62 124 -148 187 -178 102 -48 141 -51 482 -49 l319 3 17 80 c9 44 17 92 17 108 l1 27 -321 0 c-206 0 -336 4 -365 11 -31 8 -62 27 -95 58 -43 40 -54 59 -85 146 -39 107 -319 920 -361 1045 -32 96 -48 127 -76 144 -27 17 -66 25 -92 18z" class=""></path>
        <path d="M3851 4930 c-263 -33 -539 -147 -751 -311 -128 -98 -320 -307 -320 -348 0 -9 9 -41 20 -71 12 -30 23 -61 26 -69 3 -9 18 5 40 40 96 145 260 312 400 405 130 86 266 144 449 190 136 35 394 44 534 20 294 -51 547 -175 743 -364 217 -209 350 -461 403 -759 19 -111 19 -302 0 -418 -8 -49 -15 -94 -15 -98 0 -4 33 -7 72 -5 l73 3 13 65 c7 37 14 139 14 235 1 139 -3 189 -21 275 -49 237 -140 442 -275 617 -150 194 -304 323 -518 432 -223 113 -408 159 -658 166 -85 2 -188 0 -229 -5z"></path>
        <path d="M3860 4640 c-376 -48 -730 -292 -905 -623 -34 -64 -37 -77 -26 -91 25 -30 48 -18 81 42 172 304 429 502 759 585 69 17 117 21 246 21 233 1 339 -22 530 -114 128 -61 207 -117 312 -222 188 -186 294 -411 325 -690 11 -103 8 -160 -19 -370 -5 -37 -4 -38 25 -38 16 0 34 6 40 13 18 22 42 184 42 286 0 192 -59 424 -146 578 -143 250 -377 453 -636 553 -132 51 -247 72 -408 75 -85 2 -184 0 -220 -5z"></path>
        <path d="M3920 4414 c-120 -21 -153 -28 -205 -46 -199 -68 -384 -207 -503 -377 -29 -41 -52 -78 -52 -83 0 -4 18 -8 39 -8 37 0 42 4 84 63 249 349 715 476 1123 306 349 -145 574 -507 550 -884 -4 -55 -13 -127 -21 -160 -20 -82 -19 -85 13 -85 42 0 49 10 65 90 25 122 30 208 17 315 -41 345 -242 622 -561 775 -138 65 -242 90 -399 95 -69 2 -136 2 -150 -1z" class=""></path>
        <path d="M3840 4160 c-139 -38 -249 -101 -347 -200 -24 -23 -43 -46 -43 -51 0 -5 18 -9 41 -9 34 0 49 8 97 49 130 112 251 154 442 155 143 1 204 -11 305 -60 178 -87 283 -208 357 -409 19 -52 22 -82 23 -235 2 -168 12 -239 34 -226 17 11 51 182 51 255 0 165 -57 335 -154 457 -105 134 -218 212 -381 264 -103 33 -320 38 -425 10z" class=""></path>
        <path d="M5065 2606 c-35 -15 -59 -41 -51 -54 3 -5 54 -37 113 -72 198 -115 247 -145 250 -156 2 -6 -38 -33 -89 -61 -131 -70 -415 -229 -880 -492 -148 -83 -274 -151 -281 -151 -7 0 -22 6 -33 14 -11 8 -80 48 -154 88 -74 41 -206 114 -293 162 -87 49 -161 85 -164 82 -3 -3 5 -43 19 -88 l24 -83 80 -46 c43 -25 144 -83 224 -129 80 -45 175 -100 212 -121 36 -22 75 -39 85 -39 10 0 41 13 68 28 76 43 758 422 944 525 l163 91 46 -25 c25 -13 45 -28 45 -34 0 -5 -41 -31 -89 -59 -49 -27 -134 -75 -189 -106 -55 -32 -163 -93 -240 -135 -77 -43 -272 -152 -433 -241 -161 -90 -301 -164 -311 -164 -15 0 -274 135 -306 160 -20 15 -223 120 -233 120 -11 0 35 -159 52 -177 6 -6 111 -68 233 -137 239 -135 261 -143 320 -106 53 32 931 521 1022 569 l85 44 43 -23 c24 -12 43 -26 43 -30 0 -11 -105 -76 -245 -152 -138 -75 -415 -231 -756 -424 -130 -74 -245 -134 -257 -134 -12 0 -63 24 -114 53 -51 30 -115 66 -143 81 -27 16 -78 44 -113 63 -35 20 -65 33 -68 30 -3 -3 7 -45 21 -94 l27 -89 183 -107 c101 -59 194 -107 206 -107 12 0 72 29 133 64 61 35 302 170 536 301 234 130 475 265 535 300 61 34 134 75 164 89 76 39 101 67 101 113 0 50 -19 76 -80 110 -28 15 -50 33 -50 39 0 6 22 23 50 38 60 33 80 59 80 106 0 46 -11 59 -84 105 -66 42 -67 37 18 87 54 32 71 63 62 112 -8 44 -15 48 -247 175 -195 106 -222 114 -284 87z" class=""></path>
        <path d="M3043 2456 c-49 -50 -72 -84 -77 -107 -9 -48 24 -174 155 -594 123 -397 126 -405 112 -405 -6 0 -32 19 -58 43 -123 107 -575 481 -614 508 -68 45 -106 40 -180 -22 -34 -28 -61 -54 -61 -58 0 -4 24 -28 53 -52 60 -50 254 -215 696 -595 173 -148 324 -274 335 -281 12 -7 38 -12 59 -13 80 0 131 54 130 140 0 26 -19 105 -47 190 -26 80 -66 201 -88 270 -22 69 -68 213 -103 320 -144 444 -225 699 -225 708 0 29 -24 15 -87 -52z" class=""></path>
    </g>
</svg>
